# xmcd
#
# Track frame offsets: 
#        150
#        16757
#        39675
#        54635
#        72620
#        83072
#        104902
#        120680
#        134355
#        148867
#        164240
#        179537
#        193185
#        208470
#        234187
#        249409
#
# Disc length: 3557 seconds
#
# Revision: 3
# Processed by: cddbd v1.5.2PL0 Copyright (c) Steve Scherf et al.
# Submitted via: ExactAudioCopy v1.1
#
DISCID=fd0de310
DTITLE=Various Artist - The American Folk Blues Festival 1962-1966
DYEAR=2003
DGENRE=Blues
TTITLE0=Howlin' Wolf - Shake For Me
TTITLE1=Otis Rush - I Can't Quit You Baby
TTITLE2=Lonnie Johnson - Another Night to Cry
TTITLE3=Sippie Wallace - Women Be Wise
TTITLE4=Memphis Slim - Everyday I Have the Blues
TTITLE5=T-Bone Walker - Don't Throw Your Love on Me So Strong
TTITLE6=Junior Wells - Hoodoo Man Blues
TTITLE7=Victoria Spivey - Black Snake Blues
TTITLE8=Lightnin' Hopkins - Mojo Hand
TTITLE9=Sonny Boy Williamson - My Younger Days
TTITLE10=Eddie Boyd - Five Long Years
TTITLE11=Mississippi Fred McDowell - Going Down the Road
TTITLE12=Willie Dixon - Sittin' and Cryin' the Blues
TTITLE13=Sonny Boy Williamson - Nine Below Zero
TTITLE14=Howlin' Wolf - Love Me Darlin'
TTITLE15=Muddy Waters - Got My Mojo Working
EXTD=
EXTT0=
EXTT1=
EXTT2=
EXTT3=
EXTT4=
EXTT5=
EXTT6=
EXTT7=
EXTT8=
EXTT9=
EXTT10=
EXTT11=
EXTT12=
EXTT13=
EXTT14=
EXTT15=
PLAYORDER=
